<?xml version="1.0" standalone="no"?>
<svg version="1.0" xmlns="http://www.w3.org/2000/svg"
 width="263.558509pt" height="263.500000pt" viewBox="0 0 263.558509 263.500000"
 preserveAspectRatio="xMidYMid meet">
<metadata>Created by Svg.la</metadata>
<g transform="translate(-118.500000,382.000000) scale(0.100000,-0.100000)"
fill="#94a3b8" stroke="none">
<path d="M1475 3806 c-116 -37 -207 -116 -258 -224 l-32 -67 0 -1015 0 -1015
31 -65 c46 -95 101 -153 192 -197 l76 -38 1016 0 1016 0 76 38 c91 44 146 102
192 197 l31 65 3 618 3 617 -286 0 -285 0 0 -485 0 -485 -750 0 -750 0 0 750
0 750 485 0 485 0 0 285 0 285 -602 -1 c-458 0 -613 -3 -643 -13z"/>
<path d="M3385 3807 c-22 -8 -51 -19 -64 -26 -45 -25 -113 -95 -139 -146 -24
-44 -27 -61 -27 -150 0 -120 21 -172 97 -247 63 -62 134 -88 236 -88 64 0 87
5 137 29 75 35 130 90 164 161 22 47 26 69 26 145 0 75 -4 98 -25 140 -31 65
-108 141 -168 167 -58 26 -179 34 -237 15z"/>
</g>
</svg>
